<svg xmlns="http://www.w3.org/2000/svg" viewBox="0 0 694 724" font-family="Inter,system-ui,sans-serif">
<rect width="694" height="724" fill="#06060c"/>
<text x="347.0" y="36" fill="#f0f0f8" font-size="20" font-weight="700" text-anchor="middle">Which model wrote this? — confusion matrix</text>
<text x="347.0" y="60" fill="#9090b0" font-size="11.5" text-anchor="middle">Rows = true model · columns = spectrometer prediction · brighter cell = more times the row model was called the column model.</text>
<text x="347.0" y="78" fill="#9090b0" font-size="11.5" text-anchor="middle">Diagonal = correct. <tspan fill="#34d399" font-weight="600">76% of all calls land on the diagonal.</tspan></text>
<rect x="164" y="170" width="3" height="170" fill="#f59e0b" opacity="0.85"/>
<rect x="170" y="158" width="172" height="3" fill="#f59e0b" opacity="0.85"/>
<rect x="164" y="344" width="3" height="170" fill="#22d3ee" opacity="0.85"/>
<rect x="344" y="158" width="172" height="3" fill="#22d3ee" opacity="0.85"/>
<rect x="164" y="518" width="3" height="54" fill="#a78bfa" opacity="0.85"/>
<rect x="518" y="158" width="56" height="3" fill="#a78bfa" opacity="0.85"/>
<rect x="164" y="576" width="3" height="54" fill="#34d399" opacity="0.85"/>
<rect x="576" y="158" width="56" height="3" fill="#34d399" opacity="0.85"/>
<rect x="170" y="170" width="56" height="56" fill="rgb(0,225,90)" stroke="#1e1e3a" stroke-width="0.5"/>
<text x="199.0" y="197.0" fill="#f0f0f8" font-size="13" font-weight="700" font-family="JetBrains Mono,monospace" text-anchor="middle">11</text>
<text x="199.0" y="213.0" fill="#f0f0f8" font-size="9" font-family="JetBrains Mono,monospace" text-anchor="middle" opacity="0.8">91%</text>
<rect x="228" y="170" width="56" height="56" fill="rgb(94,60,80)" stroke="#1e1e3a" stroke-width="0.5"/>
<text x="257.0" y="197.0" fill="#f0f0f8" font-size="13" font-weight="700" font-family="JetBrains Mono,monospace" text-anchor="middle">1</text>
<text x="257.0" y="213.0" fill="#f0f0f8" font-size="9" font-family="JetBrains Mono,monospace" text-anchor="middle" opacity="0.8">8%</text>
<rect x="286" y="170" width="56" height="56" fill="#0a0a14" stroke="#1e1e3a" stroke-width="0.5"/>
<rect x="344" y="170" width="56" height="56" fill="#0a0a14" stroke="#1e1e3a" stroke-width="0.5"/>
<rect x="402" y="170" width="56" height="56" fill="#0a0a14" stroke="#1e1e3a" stroke-width="0.5"/>
<rect x="460" y="170" width="56" height="56" fill="#0a0a14" stroke="#1e1e3a" stroke-width="0.5"/>
<rect x="518" y="170" width="56" height="56" fill="#0a0a14" stroke="#1e1e3a" stroke-width="0.5"/>
<rect x="576" y="170" width="56" height="56" fill="#0a0a14" stroke="#1e1e3a" stroke-width="0.5"/>
<rect x="170" y="228" width="56" height="56" fill="rgb(94,60,80)" stroke="#1e1e3a" stroke-width="0.5"/>
<text x="199.0" y="255.0" fill="#f0f0f8" font-size="13" font-weight="700" font-family="JetBrains Mono,monospace" text-anchor="middle">1</text>
<text x="199.0" y="271.0" fill="#f0f0f8" font-size="9" font-family="JetBrains Mono,monospace" text-anchor="middle" opacity="0.8">8%</text>
<rect x="228" y="228" width="56" height="56" fill="rgb(0,195,90)" stroke="#1e1e3a" stroke-width="0.5"/>
<text x="257.0" y="255.0" fill="#f0f0f8" font-size="13" font-weight="700" font-family="JetBrains Mono,monospace" text-anchor="middle">9</text>
<text x="257.0" y="271.0" fill="#f0f0f8" font-size="9" font-family="JetBrains Mono,monospace" text-anchor="middle" opacity="0.8">75%</text>
<rect x="286" y="228" width="56" height="56" fill="rgb(109,60,80)" stroke="#1e1e3a" stroke-width="0.5"/>
<text x="315.0" y="255.0" fill="#f0f0f8" font-size="13" font-weight="700" font-family="JetBrains Mono,monospace" text-anchor="middle">2</text>
<text x="315.0" y="271.0" fill="#f0f0f8" font-size="9" font-family="JetBrains Mono,monospace" text-anchor="middle" opacity="0.8">16%</text>
<rect x="344" y="228" width="56" height="56" fill="#0a0a14" stroke="#1e1e3a" stroke-width="0.5"/>
<rect x="402" y="228" width="56" height="56" fill="#0a0a14" stroke="#1e1e3a" stroke-width="0.5"/>
<rect x="460" y="228" width="56" height="56" fill="#0a0a14" stroke="#1e1e3a" stroke-width="0.5"/>
<rect x="518" y="228" width="56" height="56" fill="#0a0a14" stroke="#1e1e3a" stroke-width="0.5"/>
<rect x="576" y="228" width="56" height="56" fill="#0a0a14" stroke="#1e1e3a" stroke-width="0.5"/>
<rect x="170" y="286" width="56" height="56" fill="#0a0a14" stroke="#1e1e3a" stroke-width="0.5"/>
<rect x="228" y="286" width="56" height="56" fill="rgb(94,60,80)" stroke="#1e1e3a" stroke-width="0.5"/>
<text x="257.0" y="313.0" fill="#f0f0f8" font-size="13" font-weight="700" font-family="JetBrains Mono,monospace" text-anchor="middle">1</text>
<text x="257.0" y="329.0" fill="#f0f0f8" font-size="9" font-family="JetBrains Mono,monospace" text-anchor="middle" opacity="0.8">8%</text>
<rect x="286" y="286" width="56" height="56" fill="rgb(0,210,90)" stroke="#1e1e3a" stroke-width="0.5"/>
<text x="315.0" y="313.0" fill="#f0f0f8" font-size="13" font-weight="700" font-family="JetBrains Mono,monospace" text-anchor="middle">10</text>
<text x="315.0" y="329.0" fill="#f0f0f8" font-size="9" font-family="JetBrains Mono,monospace" text-anchor="middle" opacity="0.8">83%</text>
<rect x="344" y="286" width="56" height="56" fill="#0a0a14" stroke="#1e1e3a" stroke-width="0.5"/>
<rect x="402" y="286" width="56" height="56" fill="rgb(94,60,80)" stroke="#1e1e3a" stroke-width="0.5"/>
<text x="431.0" y="313.0" fill="#f0f0f8" font-size="13" font-weight="700" font-family="JetBrains Mono,monospace" text-anchor="middle">1</text>
<text x="431.0" y="329.0" fill="#f0f0f8" font-size="9" font-family="JetBrains Mono,monospace" text-anchor="middle" opacity="0.8">8%</text>
<rect x="460" y="286" width="56" height="56" fill="#0a0a14" stroke="#1e1e3a" stroke-width="0.5"/>
<rect x="518" y="286" width="56" height="56" fill="#0a0a14" stroke="#1e1e3a" stroke-width="0.5"/>
<rect x="576" y="286" width="56" height="56" fill="#0a0a14" stroke="#1e1e3a" stroke-width="0.5"/>
<rect x="170" y="344" width="56" height="56" fill="#0a0a14" stroke="#1e1e3a" stroke-width="0.5"/>
<rect x="228" y="344" width="56" height="56" fill="#0a0a14" stroke="#1e1e3a" stroke-width="0.5"/>
<rect x="286" y="344" width="56" height="56" fill="rgb(94,60,80)" stroke="#1e1e3a" stroke-width="0.5"/>
<text x="315.0" y="371.0" fill="#f0f0f8" font-size="13" font-weight="700" font-family="JetBrains Mono,monospace" text-anchor="middle">1</text>
<text x="315.0" y="387.0" fill="#f0f0f8" font-size="9" font-family="JetBrains Mono,monospace" text-anchor="middle" opacity="0.8">8%</text>
<rect x="344" y="344" width="56" height="56" fill="rgb(0,225,90)" stroke="#1e1e3a" stroke-width="0.5"/>
<text x="373.0" y="371.0" fill="#f0f0f8" font-size="13" font-weight="700" font-family="JetBrains Mono,monospace" text-anchor="middle">11</text>
<text x="373.0" y="387.0" fill="#f0f0f8" font-size="9" font-family="JetBrains Mono,monospace" text-anchor="middle" opacity="0.8">91%</text>
<rect x="402" y="344" width="56" height="56" fill="#0a0a14" stroke="#1e1e3a" stroke-width="0.5"/>
<rect x="460" y="344" width="56" height="56" fill="#0a0a14" stroke="#1e1e3a" stroke-width="0.5"/>
<rect x="518" y="344" width="56" height="56" fill="#0a0a14" stroke="#1e1e3a" stroke-width="0.5"/>
<rect x="576" y="344" width="56" height="56" fill="#0a0a14" stroke="#1e1e3a" stroke-width="0.5"/>
<rect x="170" y="402" width="56" height="56" fill="#0a0a14" stroke="#1e1e3a" stroke-width="0.5"/>
<rect x="228" y="402" width="56" height="56" fill="#0a0a14" stroke="#1e1e3a" stroke-width="0.5"/>
<rect x="286" y="402" width="56" height="56" fill="#0a0a14" stroke="#1e1e3a" stroke-width="0.5"/>
<rect x="344" y="402" width="56" height="56" fill="rgb(109,60,80)" stroke="#1e1e3a" stroke-width="0.5"/>
<text x="373.0" y="429.0" fill="#f0f0f8" font-size="13" font-weight="700" font-family="JetBrains Mono,monospace" text-anchor="middle">2</text>
<text x="373.0" y="445.0" fill="#f0f0f8" font-size="9" font-family="JetBrains Mono,monospace" text-anchor="middle" opacity="0.8">16%</text>
<rect x="402" y="402" width="56" height="56" fill="rgb(0,180,90)" stroke="#1e1e3a" stroke-width="0.5"/>
<text x="431.0" y="429.0" fill="#f0f0f8" font-size="13" font-weight="700" font-family="JetBrains Mono,monospace" text-anchor="middle">8</text>
<text x="431.0" y="445.0" fill="#f0f0f8" font-size="9" font-family="JetBrains Mono,monospace" text-anchor="middle" opacity="0.8">66%</text>
<rect x="460" y="402" width="56" height="56" fill="rgb(94,60,80)" stroke="#1e1e3a" stroke-width="0.5"/>
<text x="489.0" y="429.0" fill="#f0f0f8" font-size="13" font-weight="700" font-family="JetBrains Mono,monospace" text-anchor="middle">1</text>
<text x="489.0" y="445.0" fill="#f0f0f8" font-size="9" font-family="JetBrains Mono,monospace" text-anchor="middle" opacity="0.8">8%</text>
<rect x="518" y="402" width="56" height="56" fill="#0a0a14" stroke="#1e1e3a" stroke-width="0.5"/>
<rect x="576" y="402" width="56" height="56" fill="rgb(94,60,80)" stroke="#1e1e3a" stroke-width="0.5"/>
<text x="605.0" y="429.0" fill="#f0f0f8" font-size="13" font-weight="700" font-family="JetBrains Mono,monospace" text-anchor="middle">1</text>
<text x="605.0" y="445.0" fill="#f0f0f8" font-size="9" font-family="JetBrains Mono,monospace" text-anchor="middle" opacity="0.8">8%</text>
<rect x="170" y="460" width="56" height="56" fill="#0a0a14" stroke="#1e1e3a" stroke-width="0.5"/>
<rect x="228" y="460" width="56" height="56" fill="#0a0a14" stroke="#1e1e3a" stroke-width="0.5"/>
<rect x="286" y="460" width="56" height="56" fill="#0a0a14" stroke="#1e1e3a" stroke-width="0.5"/>
<rect x="344" y="460" width="56" height="56" fill="#0a0a14" stroke="#1e1e3a" stroke-width="0.5"/>
<rect x="402" y="460" width="56" height="56" fill="#0a0a14" stroke="#1e1e3a" stroke-width="0.5"/>
<rect x="460" y="460" width="56" height="56" fill="rgb(0,180,90)" stroke="#1e1e3a" stroke-width="0.5"/>
<text x="489.0" y="487.0" fill="#f0f0f8" font-size="13" font-weight="700" font-family="JetBrains Mono,monospace" text-anchor="middle">8</text>
<text x="489.0" y="503.0" fill="#f0f0f8" font-size="9" font-family="JetBrains Mono,monospace" text-anchor="middle" opacity="0.8">66%</text>
<rect x="518" y="460" width="56" height="56" fill="rgb(94,60,80)" stroke="#1e1e3a" stroke-width="0.5"/>
<text x="547.0" y="487.0" fill="#f0f0f8" font-size="13" font-weight="700" font-family="JetBrains Mono,monospace" text-anchor="middle">1</text>
<text x="547.0" y="503.0" fill="#f0f0f8" font-size="9" font-family="JetBrains Mono,monospace" text-anchor="middle" opacity="0.8">8%</text>
<rect x="576" y="460" width="56" height="56" fill="rgb(123,60,80)" stroke="#1e1e3a" stroke-width="0.5"/>
<text x="605.0" y="487.0" fill="#f0f0f8" font-size="13" font-weight="700" font-family="JetBrains Mono,monospace" text-anchor="middle">3</text>
<text x="605.0" y="503.0" fill="#f0f0f8" font-size="9" font-family="JetBrains Mono,monospace" text-anchor="middle" opacity="0.8">25%</text>
<rect x="170" y="518" width="56" height="56" fill="#0a0a14" stroke="#1e1e3a" stroke-width="0.5"/>
<rect x="228" y="518" width="56" height="56" fill="#0a0a14" stroke="#1e1e3a" stroke-width="0.5"/>
<rect x="286" y="518" width="56" height="56" fill="#0a0a14" stroke="#1e1e3a" stroke-width="0.5"/>
<rect x="344" y="518" width="56" height="56" fill="#0a0a14" stroke="#1e1e3a" stroke-width="0.5"/>
<rect x="402" y="518" width="56" height="56" fill="#0a0a14" stroke="#1e1e3a" stroke-width="0.5"/>
<rect x="460" y="518" width="56" height="56" fill="rgb(138,60,80)" stroke="#1e1e3a" stroke-width="0.5"/>
<text x="489.0" y="545.0" fill="#f0f0f8" font-size="13" font-weight="700" font-family="JetBrains Mono,monospace" text-anchor="middle">4</text>
<text x="489.0" y="561.0" fill="#f0f0f8" font-size="9" font-family="JetBrains Mono,monospace" text-anchor="middle" opacity="0.8">33%</text>
<rect x="518" y="518" width="56" height="56" fill="rgb(0,180,90)" stroke="#1e1e3a" stroke-width="0.5"/>
<text x="547.0" y="545.0" fill="#f0f0f8" font-size="13" font-weight="700" font-family="JetBrains Mono,monospace" text-anchor="middle">8</text>
<text x="547.0" y="561.0" fill="#f0f0f8" font-size="9" font-family="JetBrains Mono,monospace" text-anchor="middle" opacity="0.8">66%</text>
<rect x="576" y="518" width="56" height="56" fill="#0a0a14" stroke="#1e1e3a" stroke-width="0.5"/>
<rect x="170" y="576" width="56" height="56" fill="#0a0a14" stroke="#1e1e3a" stroke-width="0.5"/>
<rect x="228" y="576" width="56" height="56" fill="#0a0a14" stroke="#1e1e3a" stroke-width="0.5"/>
<rect x="286" y="576" width="56" height="56" fill="#0a0a14" stroke="#1e1e3a" stroke-width="0.5"/>
<rect x="344" y="576" width="56" height="56" fill="#0a0a14" stroke="#1e1e3a" stroke-width="0.5"/>
<rect x="402" y="576" width="56" height="56" fill="rgb(94,60,80)" stroke="#1e1e3a" stroke-width="0.5"/>
<text x="431.0" y="603.0" fill="#f0f0f8" font-size="13" font-weight="700" font-family="JetBrains Mono,monospace" text-anchor="middle">1</text>
<text x="431.0" y="619.0" fill="#f0f0f8" font-size="9" font-family="JetBrains Mono,monospace" text-anchor="middle" opacity="0.8">8%</text>
<rect x="460" y="576" width="56" height="56" fill="rgb(123,60,80)" stroke="#1e1e3a" stroke-width="0.5"/>
<text x="489.0" y="603.0" fill="#f0f0f8" font-size="13" font-weight="700" font-family="JetBrains Mono,monospace" text-anchor="middle">3</text>
<text x="489.0" y="619.0" fill="#f0f0f8" font-size="9" font-family="JetBrains Mono,monospace" text-anchor="middle" opacity="0.8">25%</text>
<rect x="518" y="576" width="56" height="56" fill="#0a0a14" stroke="#1e1e3a" stroke-width="0.5"/>
<rect x="576" y="576" width="56" height="56" fill="rgb(0,180,90)" stroke="#1e1e3a" stroke-width="0.5"/>
<text x="605.0" y="603.0" fill="#f0f0f8" font-size="13" font-weight="700" font-family="JetBrains Mono,monospace" text-anchor="middle">8</text>
<text x="605.0" y="619.0" fill="#f0f0f8" font-size="9" font-family="JetBrains Mono,monospace" text-anchor="middle" opacity="0.8">66%</text>
<text x="158" y="203.0" fill="#d0d0e0" font-size="12" text-anchor="end" font-family="JetBrains Mono,monospace">sonnet-4</text>
<text x="158" y="261.0" fill="#d0d0e0" font-size="12" text-anchor="end" font-family="JetBrains Mono,monospace">sonnet-4.5</text>
<text x="158" y="319.0" fill="#d0d0e0" font-size="12" text-anchor="end" font-family="JetBrains Mono,monospace">haiku-4.5</text>
<text x="158" y="377.0" fill="#d0d0e0" font-size="12" text-anchor="end" font-family="JetBrains Mono,monospace">gpt-4-turbo</text>
<text x="158" y="435.0" fill="#d0d0e0" font-size="12" text-anchor="end" font-family="JetBrains Mono,monospace">gpt-4o</text>
<text x="158" y="493.0" fill="#d0d0e0" font-size="12" text-anchor="end" font-family="JetBrains Mono,monospace">gpt-5</text>
<text x="158" y="551.0" fill="#d0d0e0" font-size="12" text-anchor="end" font-family="JetBrains Mono,monospace">gemini-2.5</text>
<text x="158" y="609.0" fill="#d0d0e0" font-size="12" text-anchor="end" font-family="JetBrains Mono,monospace">llama-3.3</text>
<g transform="translate(199.0,154) rotate(-45)"><text fill="#d0d0e0" font-size="12" text-anchor="start" font-family="JetBrains Mono,monospace">sonnet-4</text></g>
<g transform="translate(257.0,154) rotate(-45)"><text fill="#d0d0e0" font-size="12" text-anchor="start" font-family="JetBrains Mono,monospace">sonnet-4.5</text></g>
<g transform="translate(315.0,154) rotate(-45)"><text fill="#d0d0e0" font-size="12" text-anchor="start" font-family="JetBrains Mono,monospace">haiku-4.5</text></g>
<g transform="translate(373.0,154) rotate(-45)"><text fill="#d0d0e0" font-size="12" text-anchor="start" font-family="JetBrains Mono,monospace">gpt-4-turbo</text></g>
<g transform="translate(431.0,154) rotate(-45)"><text fill="#d0d0e0" font-size="12" text-anchor="start" font-family="JetBrains Mono,monospace">gpt-4o</text></g>
<g transform="translate(489.0,154) rotate(-45)"><text fill="#d0d0e0" font-size="12" text-anchor="start" font-family="JetBrains Mono,monospace">gpt-5</text></g>
<g transform="translate(547.0,154) rotate(-45)"><text fill="#d0d0e0" font-size="12" text-anchor="start" font-family="JetBrains Mono,monospace">gemini-2.5</text></g>
<g transform="translate(605.0,154) rotate(-45)"><text fill="#d0d0e0" font-size="12" text-anchor="start" font-family="JetBrains Mono,monospace">llama-3.3</text></g>
<text x="158" y="664" fill="#606080" font-size="10" text-anchor="end" font-style="italic">true model →</text>
<g transform="translate(90, 402.0) rotate(-90)"><text fill="#606080" font-size="10" text-anchor="middle" font-style="italic">predicted →</text></g>
</svg>