<svg xmlns="http://www.w3.org/2000/svg" viewBox="0 0 1200 480" font-family="Inter,system-ui,sans-serif">
  <defs>
    <linearGradient id="bg" x1="0" y1="0" x2="1" y2="1">
      <stop offset="0" stop-color="#06060c"/>
      <stop offset="1" stop-color="#10101e"/>
    </linearGradient>
    <marker id="arr" viewBox="0 0 10 10" refX="9" refY="5" markerWidth="6" markerHeight="6" orient="auto">
      <path d="M0,0 L10,5 L0,10 z" fill="#9090b0"/>
    </marker>
  </defs>
  <rect width="1200" height="480" fill="url(#bg)"/>

  <!-- Title -->
  <text x="600" y="42" fill="#f0f0f8" font-size="22" font-weight="700" text-anchor="middle">Waivelets pipeline — text → 7 numbers in &lt;1ms</text>
  <text x="600" y="68" fill="#9090b0" font-size="13" text-anchor="middle">MiniLM embeddings · 26-mode attractor eigenbasis · 4 dynamical modes</text>

  <!-- Stage 1: Text -->
  <g transform="translate(40,140)">
    <rect width="180" height="180" rx="10" fill="#16162a" stroke="#1e1e3a"/>
    <text x="90" y="28" fill="#6366f1" font-size="11" font-weight="700" text-anchor="middle" letter-spacing="1">INPUT</text>
    <text x="14" y="58" fill="#d0d0e0" font-size="11" font-family="JetBrains Mono, monospace">"In the beginning</text>
    <text x="14" y="78" fill="#d0d0e0" font-size="11" font-family="JetBrains Mono, monospace">God created..."</text>
    <text x="14" y="108" fill="#606080" font-size="10">— any prose,</text>
    <text x="14" y="124" fill="#606080" font-size="10">poetry, code,</text>
    <text x="14" y="140" fill="#606080" font-size="10">essay, dialogue</text>
    <text x="90" y="166" fill="#9090b0" font-size="11" text-anchor="middle">Raw text</text>
  </g>

  <!-- Arrow 1 -->
  <line x1="226" y1="230" x2="270" y2="230" stroke="#9090b0" stroke-width="1.5" marker-end="url(#arr)"/>

  <!-- Stage 2: Embeddings -->
  <g transform="translate(280,140)">
    <rect width="200" height="180" rx="10" fill="#16162a" stroke="#1e1e3a"/>
    <text x="100" y="28" fill="#22d3ee" font-size="11" font-weight="700" text-anchor="middle" letter-spacing="1">EMBED</text>
    <!-- 384-dim heatmap stripe -->
    <g transform="translate(16,50)">
      <rect width="168" height="14" fill="#0a0a14"/>
      <g>
        <rect x="0" y="0" width="6" height="14" fill="#22d3ee" opacity="0.4"/>
        <rect x="6" y="0" width="6" height="14" fill="#22d3ee" opacity="0.7"/>
        <rect x="12" y="0" width="6" height="14" fill="#22d3ee" opacity="0.3"/>
        <rect x="18" y="0" width="6" height="14" fill="#22d3ee" opacity="0.9"/>
        <rect x="24" y="0" width="6" height="14" fill="#22d3ee" opacity="0.2"/>
        <rect x="30" y="0" width="6" height="14" fill="#22d3ee" opacity="0.5"/>
        <rect x="36" y="0" width="6" height="14" fill="#22d3ee" opacity="0.8"/>
        <rect x="42" y="0" width="6" height="14" fill="#22d3ee" opacity="0.6"/>
        <rect x="48" y="0" width="6" height="14" fill="#22d3ee" opacity="0.35"/>
        <rect x="54" y="0" width="6" height="14" fill="#22d3ee" opacity="0.75"/>
        <rect x="60" y="0" width="6" height="14" fill="#22d3ee" opacity="0.5"/>
        <rect x="66" y="0" width="6" height="14" fill="#22d3ee" opacity="0.9"/>
        <rect x="72" y="0" width="6" height="14" fill="#22d3ee" opacity="0.4"/>
        <rect x="78" y="0" width="6" height="14" fill="#22d3ee" opacity="0.65"/>
        <rect x="84" y="0" width="6" height="14" fill="#22d3ee" opacity="0.3"/>
        <rect x="90" y="0" width="6" height="14" fill="#22d3ee" opacity="0.85"/>
        <rect x="96" y="0" width="6" height="14" fill="#22d3ee" opacity="0.55"/>
        <rect x="102" y="0" width="6" height="14" fill="#22d3ee" opacity="0.45"/>
        <rect x="108" y="0" width="6" height="14" fill="#22d3ee" opacity="0.75"/>
        <rect x="114" y="0" width="6" height="14" fill="#22d3ee" opacity="0.6"/>
        <rect x="120" y="0" width="6" height="14" fill="#22d3ee" opacity="0.3"/>
        <rect x="126" y="0" width="6" height="14" fill="#22d3ee" opacity="0.5"/>
        <rect x="132" y="0" width="6" height="14" fill="#22d3ee" opacity="0.8"/>
        <rect x="138" y="0" width="6" height="14" fill="#22d3ee" opacity="0.4"/>
        <rect x="144" y="0" width="6" height="14" fill="#22d3ee" opacity="0.7"/>
        <rect x="150" y="0" width="6" height="14" fill="#22d3ee" opacity="0.55"/>
        <rect x="156" y="0" width="6" height="14" fill="#22d3ee" opacity="0.9"/>
        <rect x="162" y="0" width="6" height="14" fill="#22d3ee" opacity="0.35"/>
      </g>
      <rect x="0" y="20" width="168" height="14" fill="#0a0a14"/>
      <g transform="translate(0,20)">
        <rect x="0" y="0" width="6" height="14" fill="#22d3ee" opacity="0.6"/>
        <rect x="6" y="0" width="6" height="14" fill="#22d3ee" opacity="0.3"/>
        <rect x="12" y="0" width="6" height="14" fill="#22d3ee" opacity="0.9"/>
        <rect x="18" y="0" width="6" height="14" fill="#22d3ee" opacity="0.5"/>
        <rect x="24" y="0" width="6" height="14" fill="#22d3ee" opacity="0.7"/>
        <rect x="30" y="0" width="6" height="14" fill="#22d3ee" opacity="0.4"/>
        <rect x="36" y="0" width="6" height="14" fill="#22d3ee" opacity="0.85"/>
        <rect x="42" y="0" width="6" height="14" fill="#22d3ee" opacity="0.25"/>
        <rect x="48" y="0" width="6" height="14" fill="#22d3ee" opacity="0.65"/>
        <rect x="54" y="0" width="6" height="14" fill="#22d3ee" opacity="0.55"/>
        <rect x="60" y="0" width="6" height="14" fill="#22d3ee" opacity="0.35"/>
        <rect x="66" y="0" width="6" height="14" fill="#22d3ee" opacity="0.8"/>
        <rect x="72" y="0" width="6" height="14" fill="#22d3ee" opacity="0.45"/>
        <rect x="78" y="0" width="6" height="14" fill="#22d3ee" opacity="0.7"/>
        <rect x="84" y="0" width="6" height="14" fill="#22d3ee" opacity="0.3"/>
        <rect x="90" y="0" width="6" height="14" fill="#22d3ee" opacity="0.9"/>
        <rect x="96" y="0" width="6" height="14" fill="#22d3ee" opacity="0.5"/>
        <rect x="102" y="0" width="6" height="14" fill="#22d3ee" opacity="0.6"/>
        <rect x="108" y="0" width="6" height="14" fill="#22d3ee" opacity="0.35"/>
        <rect x="114" y="0" width="6" height="14" fill="#22d3ee" opacity="0.75"/>
        <rect x="120" y="0" width="6" height="14" fill="#22d3ee" opacity="0.5"/>
        <rect x="126" y="0" width="6" height="14" fill="#22d3ee" opacity="0.85"/>
        <rect x="132" y="0" width="6" height="14" fill="#22d3ee" opacity="0.3"/>
        <rect x="138" y="0" width="6" height="14" fill="#22d3ee" opacity="0.6"/>
        <rect x="144" y="0" width="6" height="14" fill="#22d3ee" opacity="0.45"/>
        <rect x="150" y="0" width="6" height="14" fill="#22d3ee" opacity="0.75"/>
        <rect x="156" y="0" width="6" height="14" fill="#22d3ee" opacity="0.55"/>
        <rect x="162" y="0" width="6" height="14" fill="#22d3ee" opacity="0.4"/>
      </g>
    </g>
    <text x="100" y="106" fill="#d0d0e0" font-size="11" text-anchor="middle">MiniLM-L6-v2</text>
    <text x="100" y="124" fill="#9090b0" font-size="10" text-anchor="middle">384 dims per sentence</text>
    <text x="100" y="148" fill="#606080" font-size="10" text-anchor="middle">22M params · CPU-fast</text>
    <text x="100" y="166" fill="#9090b0" font-size="11" text-anchor="middle">Sentence embeddings</text>
  </g>

  <line x1="486" y1="230" x2="530" y2="230" stroke="#9090b0" stroke-width="1.5" marker-end="url(#arr)"/>

  <!-- Stage 3: Eigenbasis -->
  <g transform="translate(540,140)">
    <rect width="200" height="180" rx="10" fill="#16162a" stroke="#1e1e3a"/>
    <text x="100" y="28" fill="#a78bfa" font-size="11" font-weight="700" text-anchor="middle" letter-spacing="1">PROJECT</text>
    <!-- attractor blobs -->
    <g transform="translate(100,100)">
      <circle cx="-50" cy="-20" r="14" fill="#a78bfa" opacity="0.6"/>
      <circle cx="-20" cy="-30" r="9" fill="#a78bfa" opacity="0.4"/>
      <circle cx="15" cy="-25" r="11" fill="#a78bfa" opacity="0.5"/>
      <circle cx="45" cy="-15" r="8" fill="#a78bfa" opacity="0.35"/>
      <circle cx="-40" cy="10" r="10" fill="#a78bfa" opacity="0.45"/>
      <circle cx="-10" cy="5" r="16" fill="#a78bfa" opacity="0.7"/>
      <circle cx="25" cy="15" r="9" fill="#a78bfa" opacity="0.4"/>
      <circle cx="50" cy="0" r="7" fill="#a78bfa" opacity="0.3"/>
      <circle cx="-25" cy="25" r="8" fill="#a78bfa" opacity="0.35"/>
      <circle cx="10" cy="30" r="11" fill="#a78bfa" opacity="0.5"/>
      <!-- trajectory -->
      <path d="M -55 -20 Q -30 -35 -8 5 Q 15 25 50 0" stroke="#f0f0f8" stroke-width="1.5" fill="none" opacity="0.9"/>
      <circle cx="-55" cy="-20" r="3" fill="#f0f0f8"/>
      <circle cx="50" cy="0" r="3" fill="#f0f0f8"/>
    </g>
    <text x="100" y="148" fill="#d0d0e0" font-size="11" text-anchor="middle">26-mode eigenbasis</text>
    <text x="100" y="166" fill="#9090b0" font-size="11" text-anchor="middle">Trajectory through attractors</text>
  </g>

  <line x1="746" y1="230" x2="790" y2="230" stroke="#9090b0" stroke-width="1.5" marker-end="url(#arr)"/>

  <!-- Stage 4: 7 numbers -->
  <g transform="translate(800,140)">
    <rect width="180" height="180" rx="10" fill="#16162a" stroke="#1e1e3a"/>
    <text x="90" y="28" fill="#34d399" font-size="11" font-weight="700" text-anchor="middle" letter-spacing="1">FINGERPRINT</text>
    <g font-family="JetBrains Mono, monospace" font-size="10.5" fill="#d0d0e0">
      <text x="16" y="56">smoothness   +0.41</text>
      <text x="16" y="74">oscillation   0.18</text>
      <text x="16" y="92">entropy       3.6 </text>
      <text x="16" y="110">exposition   +0.7</text>
      <text x="16" y="128">interiority  +0.2</text>
      <text x="16" y="146">structure    +0.3</text>
      <text x="16" y="164">narration    -0.1</text>
    </g>
  </g>

  <line x1="986" y1="230" x2="1030" y2="230" stroke="#9090b0" stroke-width="1.5" marker-end="url(#arr)"/>

  <!-- Stage 5: Mode -->
  <g transform="translate(1040,140)">
    <rect width="130" height="180" rx="10" fill="#16162a" stroke="#f59e0b"/>
    <text x="65" y="28" fill="#f59e0b" font-size="11" font-weight="700" text-anchor="middle" letter-spacing="1">CLASSIFY</text>
    <circle cx="65" cy="92" r="36" fill="#f59e0b" opacity="0.15" stroke="#f59e0b" stroke-width="1.5"/>
    <text x="65" y="88" fill="#f59e0b" font-size="13" font-weight="700" text-anchor="middle">CONVERGENT</text>
    <text x="65" y="108" fill="#9090b0" font-size="9" text-anchor="middle">distance 0.14</text>
    <text x="65" y="148" fill="#d0d0e0" font-size="11" text-anchor="middle">1 of 4 modes</text>
    <text x="65" y="164" fill="#606080" font-size="9.5" text-anchor="middle">+ AI/human score</text>
  </g>

  <!-- footer -->
  <text x="600" y="430" fill="#606080" font-size="11" text-anchor="middle">From "telescope" (wavelet analysis) to "map" (eigenbasis): the same structure, 1000× faster.</text>
  <text x="600" y="450" fill="#606080" font-size="11" text-anchor="middle" font-family="JetBrains Mono, monospace">waivelets-production.up.railway.app</text>
</svg>
